<svg xmlns="http://www.w3.org/2000/svg" viewBox="0 0 61.94 57.71">
<style>
  path {
    fill: #000;
  }
  @media (prefers-color-scheme: dark) {
    path {
      fill: #fff;
    }
            }
    </style>
<path fill="currentcolor" d="M0 55.38c1.33-5.12 2.45-9.52 3.34-13.23.89-3.71 1.67-6.95 2.34-9.73.67-2.78 1.24-5.28 1.72-7.51.48-2.22.95-4.45 1.39-6.67.3-1.33.45-2.35.45-3.06s-.13-1.18-.39-1.45c-.26-.26-.65-.39-1.17-.39-.59 0-1.24.11-1.95.33-.71.22-1.46.52-2.28.89l-2-4.23C4.93 6.7 8.1 4.07 10.96 2.44 13.81.81 16.43-.01 18.8-.01c2.59 0 4.65.65 6.17 1.95 1.52 1.3 2.5 3.23 2.95 5.78.44 2.56.26 5.77-.56 9.62l-7.9 38.59-18.24.89L0 55.37Zm43.03 2.33c-3.04 0-5.52-.82-7.45-2.45-1.93-1.63-3.41-4.48-4.45-8.56l-1.78-7.01c-.82-3.26-1.56-5.56-2.22-6.89-.67-1.33-1.56-2.04-2.67-2.11l-2.22-.22v-2.56h.78l1.22-1.11L53.15.33c2.67.44 4.8 1.54 6.39 3.28 1.59 1.74 2.39 3.8 2.39 6.17 0 2.67-.93 4.88-2.78 6.62-1.85 1.74-5.15 3.32-9.9 4.73l-24.57 7.34 1.67-1 6.45.56c2.74.22 5.06.76 6.95 1.61 1.89.85 3.48 2.04 4.78 3.56 1.3 1.52 2.35 3.43 3.17 5.73l1.22 3.23c.67 1.78 1.24 2.93 1.72 3.45s1.09.78 1.83.78c.67 0 1.39-.24 2.17-.72s1.76-1.32 2.95-2.5l3.11 3.56c-2.22 3.41-4.82 6.1-7.78 8.06-2.97 1.96-6.27 2.95-9.9 2.95Z"/>
</svg>